<?xml version="1.0" encoding="UTF-8" standalone="no"?><!DOCTYPE svg PUBLIC "-//W3C//DTD SVG 1.1//EN" "http://www.w3.org/Graphics/SVG/1.1/DTD/svg11.dtd"><svg width="100%" height="100%" viewBox="0 0 1200 300" version="1.1" xmlns="http://www.w3.org/2000/svg" xmlns:xlink="http://www.w3.org/1999/xlink" xml:space="preserve" xmlns:serif="http://www.serif.com/" style="fill-rule:evenodd;clip-rule:evenodd;stroke-linejoin:round;stroke-miterlimit:2;"><rect x="0" y="0" width="1200" height="300" style="fill:#008dd0;"/><g id="Logo"><path d="M1200,300l-288.105,-166.337l77.171,-133.663l210.934,0l0,300Z" style="fill:#fff;"/><g id="Logo1" serif:id="Logo"><g><path d="M1012.72,122.964l-4.334,0.147c-3.257,0.098 -5.682,0.686 -7.273,1.763c-1.593,1.078 -2.388,2.718 -2.388,4.923c-0,3.159 1.812,4.738 5.436,4.738c2.597,-0 4.67,-0.746 6.226,-2.24c1.555,-1.494 2.333,-3.478 2.333,-5.952l0,-3.379Zm3.306,19.028l-2.168,-5.584l-0.293,0c-1.887,2.377 -3.827,4.023 -5.822,4.941c-1.997,0.919 -4.598,1.378 -7.806,1.378c-3.943,-0 -7.046,-1.126 -9.312,-3.379c-2.265,-2.253 -3.398,-5.461 -3.398,-9.625c0,-4.358 1.525,-7.573 4.573,-9.642c3.05,-2.069 7.647,-3.215 13.794,-3.435l7.126,-0.221l0,-1.8c0,-4.162 -2.13,-6.244 -6.392,-6.244c-3.281,0 -7.139,0.992 -11.571,2.976l-3.709,-7.567c4.726,-2.473 9.966,-3.711 15.721,-3.711c5.51,0 9.734,1.201 12.673,3.6c2.939,2.4 4.408,6.049 4.408,10.946l-0,27.367l-7.824,0Z" style="fill:#1e1e1d;fill-rule:nonzero;"/><rect x="1031.16" y="84.835" width="11.204" height="57.157" style="fill:#1e1e1d;"/><path d="M1067.3,108.125c-2.377,-0 -4.238,0.753 -5.585,2.259c-1.345,1.506 -2.117,3.642 -2.314,6.41l15.722,-0c-0.049,-2.768 -0.771,-4.904 -2.167,-6.41c-1.397,-1.506 -3.282,-2.259 -5.657,-2.259m1.58,34.603c-6.613,-0 -11.78,-1.825 -15.502,-5.474c-3.723,-3.649 -5.583,-8.816 -5.583,-15.502c-0,-6.881 1.719,-12.201 5.162,-15.96c3.44,-3.758 8.197,-5.638 14.27,-5.638c5.804,-0 10.322,1.652 13.554,4.959c3.233,3.305 4.85,7.873 4.85,13.7l-0.001,5.437l-26.484,0c0.122,3.184 1.065,5.67 2.828,7.458c1.764,1.788 4.237,2.681 7.42,2.681c2.474,-0 4.813,-0.257 7.017,-0.771c2.203,-0.515 4.504,-1.335 6.906,-2.463l-0,8.67c-1.961,0.98 -4.054,1.709 -6.282,2.186c-2.229,0.478 -4.947,0.717 -8.154,0.717" style="fill:#1e1e1d;fill-rule:nonzero;"/><path d="M1099.65,121.017l-13.224,-20.092l12.711,-0l7.97,13.076l8.046,-13.076l12.708,-0l-13.37,20.092l13.996,20.975l-12.747,0l-8.633,-14.069l-8.669,14.069l-12.709,0l13.921,-20.975Z" style="fill:#1e1e1d;fill-rule:nonzero;"/><path d="M1150.7,100.93l0,-16.094l-9.038,0l0,16.094l-9.916,-0l-6.014,9.037l15.93,0l0,15.889l9.038,-0l0,-15.889l9.967,0l6.003,-9.021l0,-0.016l-15.97,-0Z" style="fill:#008dd0;fill-rule:nonzero;"/></g></g></g><g id="Headline"><path d="M108.35,160.53c0,5.09 -0.626,9.68 -1.878,13.769c-1.251,4.089 -3.119,7.573 -5.601,10.452c-2.483,2.879 -5.581,5.091 -9.295,6.635c-3.713,1.543 -8.032,2.315 -12.955,2.315c-2.253,0 -4.465,-0.135 -6.635,-0.407c-2.169,-0.271 -4.443,-0.698 -6.822,-1.283c0.125,-1.669 0.271,-3.338 0.438,-5.007c0.167,-1.669 0.313,-3.338 0.438,-5.007c0.126,-0.918 0.491,-1.658 1.096,-2.222c0.605,-0.563 1.471,-0.845 2.597,-0.845c0.71,0 1.638,0.147 2.785,0.439c1.148,0.292 2.598,0.438 4.35,0.438c2.379,-0 4.486,-0.345 6.322,-1.033c1.836,-0.688 3.369,-1.784 4.6,-3.286c1.231,-1.502 2.159,-3.453 2.785,-5.852c0.626,-2.399 0.939,-5.309 0.939,-8.731l-0,-58.708l16.836,0l0,58.333Z" style="fill:#fff;fill-rule:nonzero;"/><path d="M164.492,153.207c-0,-2.003 -0.282,-3.891 -0.845,-5.664c-0.564,-1.774 -1.409,-3.328 -2.535,-4.663c-1.127,-1.336 -2.556,-2.389 -4.287,-3.161c-1.732,-0.772 -3.745,-1.158 -6.04,-1.158c-4.465,0 -7.98,1.273 -10.546,3.818c-2.566,2.545 -4.204,6.155 -4.913,10.828l29.166,-0Zm-29.479,9.325c0.25,3.297 0.834,6.144 1.752,8.544c0.918,2.399 2.128,4.381 3.63,5.946c1.502,1.564 3.286,2.733 5.351,3.504c2.066,0.772 4.35,1.158 6.854,1.158c2.503,0 4.663,-0.292 6.478,-0.876c1.815,-0.584 3.4,-1.231 4.756,-1.94c1.356,-0.709 2.546,-1.356 3.568,-1.94c1.022,-0.585 2.013,-0.877 2.973,-0.877c1.293,0 2.253,0.48 2.879,1.44l4.444,5.633c-1.711,2.003 -3.63,3.682 -5.758,5.038c-2.128,1.356 -4.35,2.441 -6.666,3.255c-2.316,0.813 -4.673,1.387 -7.073,1.721c-2.399,0.334 -4.725,0.501 -6.978,0.501c-4.465,-0 -8.616,-0.741 -12.455,-2.222c-3.839,-1.481 -7.177,-3.672 -10.014,-6.572c-2.838,-2.9 -5.07,-6.488 -6.697,-10.765c-1.627,-4.277 -2.441,-9.232 -2.441,-14.865c-0,-4.381 0.709,-8.501 2.128,-12.361c1.419,-3.86 3.453,-7.218 6.102,-10.077c2.65,-2.858 5.884,-5.121 9.701,-6.79c3.818,-1.669 8.126,-2.504 12.925,-2.504c4.047,0 7.782,0.647 11.203,1.94c3.422,1.294 6.363,3.182 8.825,5.664c2.462,2.483 4.392,5.529 5.789,9.138c1.398,3.61 2.097,7.73 2.097,12.362c0,2.336 -0.25,3.911 -0.751,4.725c-0.501,0.814 -1.46,1.22 -2.879,1.22l-39.743,0Z" style="fill:#fff;fill-rule:nonzero;"/><path d="M210.744,193.701c-5.591,0 -9.878,-1.575 -12.862,-4.725c-2.983,-3.15 -4.475,-7.5 -4.475,-13.05l0,-35.863l-6.571,0c-0.835,0 -1.544,-0.271 -2.128,-0.813c-0.585,-0.543 -0.877,-1.356 -0.877,-2.441l0,-6.134l10.327,-1.69l3.255,-17.525c0.209,-0.834 0.605,-1.481 1.189,-1.94c0.584,-0.459 1.335,-0.688 2.253,-0.688l8.012,-0l-0,20.216l17.149,-0l-0,11.015l-17.149,0l-0,34.799c-0,2.003 0.49,3.568 1.47,4.694c0.981,1.127 2.327,1.69 4.037,1.69c0.96,0 1.763,-0.115 2.41,-0.344c0.647,-0.229 1.21,-0.469 1.69,-0.72c0.48,-0.25 0.907,-0.49 1.283,-0.72c0.375,-0.229 0.751,-0.344 1.126,-0.344c0.459,0 0.835,0.115 1.127,0.344c0.292,0.23 0.605,0.574 0.939,1.033l4.631,7.511c-2.253,1.877 -4.84,3.296 -7.761,4.256c-2.92,0.959 -5.945,1.439 -9.075,1.439Z" style="fill:#fff;fill-rule:nonzero;"/><path d="M282.032,134.868c0,1.085 -0.188,2.149 -0.563,3.192c-0.376,1.044 -0.876,1.899 -1.502,2.567l-30.481,40.181l31.607,0l0,11.892l-49.57,-0l0,-6.447c0,-0.709 0.167,-1.554 0.501,-2.535c0.334,-0.98 0.835,-1.908 1.502,-2.785l30.794,-40.619l-30.981,-0l-0,-11.83l48.693,0l0,6.384Z" style="fill:#fff;fill-rule:nonzero;"/><path d="M314.828,193.701c-5.591,0 -9.878,-1.575 -12.862,-4.725c-2.983,-3.15 -4.475,-7.5 -4.475,-13.05l0,-35.863l-6.571,0c-0.835,0 -1.544,-0.271 -2.128,-0.813c-0.585,-0.543 -0.877,-1.356 -0.877,-2.441l0,-6.134l10.327,-1.69l3.255,-17.525c0.209,-0.834 0.605,-1.481 1.189,-1.94c0.584,-0.459 1.335,-0.688 2.253,-0.688l8.012,-0l-0,20.216l17.149,-0l-0,11.015l-17.149,0l-0,34.799c-0,2.003 0.49,3.568 1.47,4.694c0.981,1.127 2.327,1.69 4.037,1.69c0.96,0 1.763,-0.115 2.41,-0.344c0.647,-0.229 1.21,-0.469 1.69,-0.72c0.48,-0.25 0.907,-0.49 1.283,-0.72c0.375,-0.229 0.751,-0.344 1.127,-0.344c0.459,0 0.834,0.115 1.126,0.344c0.292,0.23 0.605,0.574 0.939,1.033l4.631,7.511c-2.253,1.877 -4.84,3.296 -7.76,4.256c-2.921,0.959 -5.946,1.439 -9.076,1.439Z" style="fill:#fff;fill-rule:nonzero;"/><path d="M409.587,141.002c-0.418,0.668 -0.856,1.137 -1.315,1.408c-0.459,0.272 -1.043,0.407 -1.752,0.407c-0.751,0 -1.554,-0.209 -2.41,-0.626c-0.855,-0.417 -1.846,-0.886 -2.973,-1.408c-1.126,-0.522 -2.409,-0.991 -3.849,-1.408c-1.439,-0.417 -3.14,-0.626 -5.101,-0.626c-3.046,-0 -5.435,0.647 -7.166,1.94c-1.732,1.294 -2.598,2.983 -2.598,5.07c0,1.377 0.449,2.535 1.346,3.473c0.897,0.939 2.086,1.763 3.568,2.473c1.481,0.709 3.16,1.345 5.038,1.909c1.878,0.563 3.787,1.178 5.727,1.846c1.94,0.668 3.849,1.429 5.727,2.284c1.877,0.856 3.557,1.941 5.038,3.255c1.481,1.314 2.67,2.889 3.567,4.725c0.898,1.836 1.346,4.048 1.346,6.635c0,3.087 -0.553,5.935 -1.658,8.543c-1.106,2.608 -2.744,4.861 -4.914,6.76c-2.169,1.898 -4.85,3.379 -8.042,4.443c-3.192,1.064 -6.875,1.596 -11.047,1.596c-2.211,0 -4.371,-0.198 -6.478,-0.594c-2.107,-0.397 -4.131,-0.95 -6.071,-1.659c-1.94,-0.709 -3.734,-1.544 -5.383,-2.503c-1.648,-0.96 -3.098,-2.003 -4.349,-3.13l3.567,-5.883c0.459,-0.709 1.002,-1.252 1.627,-1.627c0.626,-0.376 1.419,-0.564 2.379,-0.564c0.959,0 1.867,0.272 2.722,0.814c0.856,0.542 1.847,1.127 2.973,1.752c1.127,0.626 2.452,1.21 3.975,1.753c1.523,0.542 3.452,0.814 5.789,0.814c1.836,-0 3.411,-0.22 4.725,-0.658c1.315,-0.438 2.4,-1.011 3.255,-1.721c0.855,-0.709 1.481,-1.533 1.878,-2.472c0.396,-0.939 0.594,-1.909 0.594,-2.91c0,-1.503 -0.448,-2.733 -1.345,-3.693c-0.898,-0.96 -2.087,-1.794 -3.568,-2.504c-1.481,-0.709 -3.171,-1.345 -5.07,-1.909c-1.898,-0.563 -3.838,-1.178 -5.82,-1.846c-1.982,-0.668 -3.922,-1.45 -5.821,-2.347c-1.898,-0.897 -3.588,-2.034 -5.07,-3.411c-1.481,-1.377 -2.67,-3.067 -3.567,-5.07c-0.897,-2.002 -1.346,-4.423 -1.346,-7.26c0,-2.629 0.522,-5.132 1.565,-7.51c1.043,-2.379 2.576,-4.455 4.6,-6.228c2.024,-1.773 4.548,-3.192 7.573,-4.256c3.025,-1.064 6.52,-1.596 10.484,-1.596c4.423,0 8.449,0.73 12.079,2.191c3.63,1.46 6.656,3.379 9.076,5.758l-3.505,5.57Z" style="fill:#fff;fill-rule:nonzero;"/><path d="M440.881,176.051c1.752,2.128 3.661,3.631 5.727,4.507c2.065,0.876 4.308,1.314 6.728,1.314c2.336,0 4.444,-0.438 6.321,-1.314c1.878,-0.876 3.474,-2.212 4.788,-4.006c1.315,-1.794 2.326,-4.058 3.036,-6.791c0.709,-2.733 1.064,-5.956 1.064,-9.67c-0,-3.755 -0.303,-6.936 -0.908,-9.544c-0.605,-2.608 -1.471,-4.726 -2.597,-6.353c-1.127,-1.627 -2.493,-2.816 -4.1,-3.567c-1.606,-0.752 -3.432,-1.127 -5.476,-1.127c-3.213,-0 -5.946,0.678 -8.199,2.034c-2.253,1.356 -4.381,3.265 -6.384,5.727l-0,28.79Zm-0.814,-38.804c2.629,-2.963 5.612,-5.362 8.95,-7.198c3.338,-1.836 7.26,-2.754 11.767,-2.754c3.505,0 6.707,0.73 9.607,2.191c2.9,1.46 5.403,3.578 7.511,6.353c2.107,2.774 3.734,6.196 4.881,10.264c1.148,4.068 1.722,8.731 1.722,13.988c-0,4.799 -0.647,9.243 -1.941,13.332c-1.293,4.089 -3.139,7.635 -5.539,10.64c-2.399,3.004 -5.299,5.351 -8.699,7.041c-3.401,1.69 -7.208,2.535 -11.423,2.535c-3.588,-0 -6.655,-0.553 -9.2,-1.659c-2.545,-1.106 -4.819,-2.639 -6.822,-4.6l-0,26.287l-15.46,-0l0,-85.183l9.451,0c2.003,0 3.317,0.939 3.943,2.817l1.252,5.946Z" style="fill:#fff;fill-rule:nonzero;"/><path d="M537.892,153.207c0,-2.003 -0.281,-3.891 -0.845,-5.664c-0.563,-1.774 -1.408,-3.328 -2.534,-4.663c-1.127,-1.336 -2.556,-2.389 -4.288,-3.161c-1.731,-0.772 -3.745,-1.158 -6.039,-1.158c-4.465,0 -7.98,1.273 -10.547,3.818c-2.566,2.545 -4.203,6.155 -4.913,10.828l29.166,-0Zm-29.479,9.325c0.251,3.297 0.835,6.144 1.753,8.544c0.918,2.399 2.128,4.381 3.63,5.946c1.502,1.564 3.286,2.733 5.351,3.504c2.066,0.772 4.35,1.158 6.854,1.158c2.503,0 4.662,-0.292 6.477,-0.876c1.816,-0.584 3.401,-1.231 4.757,-1.94c1.356,-0.709 2.545,-1.356 3.568,-1.94c1.022,-0.585 2.013,-0.877 2.973,-0.877c1.293,0 2.253,0.48 2.879,1.44l4.443,5.633c-1.71,2.003 -3.63,3.682 -5.758,5.038c-2.128,1.356 -4.35,2.441 -6.665,3.255c-2.316,0.813 -4.674,1.387 -7.073,1.721c-2.399,0.334 -4.725,0.501 -6.978,0.501c-4.465,-0 -8.617,-0.741 -12.455,-2.222c-3.839,-1.481 -7.177,-3.672 -10.014,-6.572c-2.838,-2.9 -5.07,-6.488 -6.697,-10.765c-1.628,-4.277 -2.441,-9.232 -2.441,-14.865c-0,-4.381 0.709,-8.501 2.128,-12.361c1.418,-3.86 3.452,-7.218 6.102,-10.077c2.65,-2.858 5.883,-5.121 9.701,-6.79c3.818,-1.669 8.126,-2.504 12.925,-2.504c4.047,0 7.781,0.647 11.203,1.94c3.421,1.294 6.363,3.182 8.825,5.664c2.462,2.483 4.391,5.529 5.789,9.138c1.398,3.61 2.097,7.73 2.097,12.362c-0,2.336 -0.25,3.911 -0.751,4.725c-0.501,0.814 -1.461,1.22 -2.879,1.22l-39.744,0Z" style="fill:#fff;fill-rule:nonzero;"/><path d="M577.824,136.371c1.293,-1.294 2.66,-2.494 4.099,-3.599c1.44,-1.106 2.963,-2.045 4.569,-2.817c1.606,-0.772 3.328,-1.377 5.164,-1.815c1.835,-0.438 3.838,-0.657 6.008,-0.657c3.505,0 6.613,0.595 9.326,1.784c2.712,1.189 4.975,2.858 6.79,5.007c1.815,2.149 3.192,4.715 4.131,7.698c0.939,2.984 1.408,6.269 1.408,9.858l0,40.87l-15.459,-0l0,-40.87c0,-3.922 -0.897,-6.958 -2.691,-9.107c-1.794,-2.149 -4.527,-3.223 -8.199,-3.223c-2.671,-0 -5.174,0.605 -7.511,1.815c-2.336,1.21 -4.548,2.858 -6.634,4.944l-0,46.441l-15.459,-0l-0,-64.216l9.451,0c2.002,0 3.317,0.939 3.943,2.817l1.064,5.07Z" style="fill:#fff;fill-rule:nonzero;"/><path d="M674.272,144.883c-1.753,-2.128 -3.662,-3.631 -5.727,-4.507c-2.065,-0.876 -4.287,-1.314 -6.666,-1.314c-2.336,-0 -4.443,0.438 -6.321,1.314c-1.878,0.876 -3.484,2.201 -4.819,3.975c-1.335,1.773 -2.358,4.026 -3.067,6.759c-0.709,2.733 -1.064,5.956 -1.064,9.67c-0,3.755 0.302,6.937 0.907,9.545c0.605,2.607 1.471,4.735 2.598,6.384c1.126,1.648 2.503,2.837 4.131,3.567c1.627,0.73 3.442,1.095 5.445,1.095c3.213,0 5.946,-0.667 8.199,-2.002c2.253,-1.336 4.381,-3.234 6.384,-5.696l-0,-28.79Zm15.459,-45.189l0,93.006l-9.451,-0c-2.044,-0 -3.338,-0.939 -3.88,-2.817l-1.314,-6.196c-2.587,2.963 -5.56,5.362 -8.919,7.198c-3.359,1.836 -7.271,2.754 -11.736,2.754c-3.505,-0 -6.717,-0.731 -9.638,-2.191c-2.921,-1.46 -5.435,-3.578 -7.542,-6.353c-2.107,-2.774 -3.734,-6.206 -4.882,-10.295c-1.147,-4.089 -1.721,-8.763 -1.721,-14.02c-0,-4.757 0.647,-9.18 1.94,-13.269c1.294,-4.089 3.15,-7.636 5.571,-10.64c2.42,-3.004 5.319,-5.351 8.699,-7.041c3.38,-1.69 7.177,-2.535 11.391,-2.535c3.589,0 6.655,0.564 9.201,1.69c2.545,1.127 4.819,2.65 6.822,4.569l-0,-33.86l15.459,-0Z" style="fill:#fff;fill-rule:nonzero;"/><path d="M746.373,153.207c0,-2.003 -0.281,-3.891 -0.845,-5.664c-0.563,-1.774 -1.408,-3.328 -2.534,-4.663c-1.127,-1.336 -2.556,-2.389 -4.288,-3.161c-1.731,-0.772 -3.745,-1.158 -6.039,-1.158c-4.465,0 -7.98,1.273 -10.547,3.818c-2.566,2.545 -4.203,6.155 -4.913,10.828l29.166,-0Zm-29.479,9.325c0.251,3.297 0.835,6.144 1.753,8.544c0.918,2.399 2.128,4.381 3.63,5.946c1.502,1.564 3.286,2.733 5.351,3.504c2.066,0.772 4.35,1.158 6.854,1.158c2.503,0 4.662,-0.292 6.478,-0.876c1.815,-0.584 3.4,-1.231 4.756,-1.94c1.356,-0.709 2.545,-1.356 3.568,-1.94c1.022,-0.585 2.013,-0.877 2.973,-0.877c1.293,0 2.253,0.48 2.879,1.44l4.443,5.633c-1.71,2.003 -3.63,3.682 -5.758,5.038c-2.128,1.356 -4.35,2.441 -6.665,3.255c-2.316,0.813 -4.674,1.387 -7.073,1.721c-2.399,0.334 -4.725,0.501 -6.978,0.501c-4.465,-0 -8.617,-0.741 -12.455,-2.222c-3.839,-1.481 -7.177,-3.672 -10.014,-6.572c-2.838,-2.9 -5.07,-6.488 -6.697,-10.765c-1.628,-4.277 -2.441,-9.232 -2.441,-14.865c-0,-4.381 0.709,-8.501 2.128,-12.361c1.418,-3.86 3.452,-7.218 6.102,-10.077c2.65,-2.858 5.883,-5.121 9.701,-6.79c3.818,-1.669 8.126,-2.504 12.925,-2.504c4.047,0 7.781,0.647 11.203,1.94c3.421,1.294 6.363,3.182 8.825,5.664c2.462,2.483 4.391,5.529 5.789,9.138c1.398,3.61 2.097,7.73 2.097,12.362c-0,2.336 -0.25,3.911 -0.751,4.725c-0.501,0.814 -1.461,1.22 -2.879,1.22l-39.744,0Z" style="fill:#fff;fill-rule:nonzero;"/><path d="M786.305,136.371c1.293,-1.294 2.66,-2.494 4.099,-3.599c1.44,-1.106 2.963,-2.045 4.569,-2.817c1.606,-0.772 3.328,-1.377 5.164,-1.815c1.835,-0.438 3.838,-0.657 6.008,-0.657c3.505,0 6.614,0.595 9.326,1.784c2.712,1.189 4.975,2.858 6.79,5.007c1.816,2.149 3.192,4.715 4.131,7.698c0.939,2.984 1.409,6.269 1.409,9.858l-0,40.87l-15.46,-0l0,-40.87c0,-3.922 -0.897,-6.958 -2.691,-9.107c-1.794,-2.149 -4.527,-3.223 -8.199,-3.223c-2.671,-0 -5.174,0.605 -7.511,1.815c-2.336,1.21 -4.548,2.858 -6.634,4.944l0,46.441l-15.459,-0l-0,-64.216l9.451,0c2.002,0 3.317,0.939 3.943,2.817l1.064,5.07Z" style="fill:#fff;fill-rule:nonzero;"/></g></svg>